<svg width="136" height="58" viewBox="0 0 136 58" fill="none" xmlns="http://www.w3.org/2000/svg">
<g id="logo">
<path d="M7.28048 40.8976V12.4948H0V4.19624H25.0772V12.4948H17.7967V40.8976H7.28048Z" fill="#0167FF"/>
<path d="M28.1785 40.8976V20.6367L26.3118 19.478V16.1273L33.0011 14.2797H38.197V40.8976H28.1785ZM32.69 11.3987L27.5874 6.23172V5.13569L32.69 0H33.8723L39.1926 5.13569V6.23172L33.8723 11.3987H32.69Z" fill="#0167FF"/>
<path d="M52.5389 40.8976H42.4894V20.6367L40.6226 19.478V16.1273L47.3119 14.2797H52.6012V18.3194C52.7049 18.1732 52.8501 17.9854 53.0367 17.7557C53.2442 17.5052 53.6175 17.119 54.1568 16.597C54.6961 16.0751 55.2458 15.6158 55.8058 15.2192C56.3866 14.8225 57.0814 14.4676 57.8904 14.1545C58.7201 13.8204 59.5394 13.6534 60.3483 13.6534C62.4225 13.6534 64.0093 14.0501 65.1086 14.8434C66.208 15.6367 66.9858 16.9311 67.4421 18.7265C68.1474 17.4948 69.2259 16.3465 70.6779 15.2818C72.1506 14.1962 73.7685 13.6534 75.5315 13.6534C77.4813 13.6534 78.9955 13.9979 80.0741 14.6868C81.1734 15.3549 81.972 16.5031 82.4698 18.1315C82.9676 19.7599 83.2165 22.0563 83.2165 25.0208V40.8976H73.1047V24.1127C73.1047 23.1941 72.8869 22.4739 72.4513 21.9519C72.0158 21.43 71.352 21.1691 70.4601 21.1691C69.8586 21.1691 69.0393 21.6701 68.0022 22.6722C68.0644 23.6743 68.0955 24.7599 68.0955 25.929V40.8976H57.8282V24.1127C57.8904 22.1503 57.0607 21.1691 55.3391 21.1691C55.2147 21.1691 55.0902 21.1795 54.9658 21.2004C54.862 21.2213 54.7583 21.2421 54.6546 21.263C54.5717 21.2839 54.4679 21.3256 54.3435 21.3883C54.2398 21.43 54.1464 21.4718 54.0635 21.5135C53.9805 21.5344 53.8872 21.5866 53.7835 21.6701C53.6797 21.7327 53.5968 21.7849 53.5345 21.8267C53.4723 21.8684 53.379 21.9415 53.2545 22.0459C53.1508 22.1294 53.0679 22.192 53.0056 22.2338C52.9641 22.2755 52.8812 22.3486 52.7567 22.453C52.653 22.5365 52.5804 22.5991 52.5389 22.6409V40.8976Z" fill="#0167FF"/>
<path d="M101.124 24.7077C101.124 22.0563 100.989 20.1774 100.719 19.0709C100.449 17.9645 99.9516 17.4112 99.2257 17.4112C98.6034 17.4112 98.0952 17.5261 97.7011 17.7557C97.307 17.9645 97.0166 18.3089 96.83 18.7891C96.6433 19.2484 96.5188 19.7286 96.4566 20.2296C96.4151 20.7098 96.3944 21.3256 96.3944 22.0772V24.7077H101.124ZM98.6345 41.5553C96.3114 41.5553 94.2891 41.2004 92.5675 40.4905C90.8666 39.7807 89.5184 38.7891 88.5227 37.5156C87.5479 36.2421 86.8323 34.8121 86.3759 33.2254C85.9196 31.6179 85.6915 29.8329 85.6915 27.8705C85.6915 23.1941 86.8737 19.6555 89.2383 17.2547C91.6029 14.8538 94.9113 13.6534 99.1634 13.6534C103.25 13.6534 106.174 14.6242 107.937 16.5657C109.7 18.4864 110.582 21.5866 110.582 25.8663V29.3423H96.3633V29.9373C96.3633 31.1691 96.4877 32.1816 96.7366 32.9749C97.0063 33.7682 97.39 34.3528 97.8878 34.7285C98.3856 35.1043 98.8938 35.3548 99.4123 35.4801C99.9309 35.6054 100.564 35.668 101.31 35.668C102.036 35.668 102.814 35.5741 103.644 35.3862C104.494 35.1983 105.345 34.906 106.195 34.5093C107.066 34.1127 107.792 33.6429 108.373 33.1002L110.209 36.263C109.441 37.5156 108.311 38.5699 106.817 39.4258C105.345 40.2609 103.924 40.8246 102.555 41.1168C101.186 41.4091 99.879 41.5553 98.6345 41.5553Z" fill="#0167FF"/>
<path d="M122.135 41.5553C120.185 41.5553 118.215 41.2317 116.224 40.5845C114.232 39.9164 112.957 39.2692 112.397 38.6429L113.206 33.6012C113.911 34.2901 115.083 34.8851 116.721 35.3862C118.381 35.8872 120.071 36.1377 121.793 36.1377C123.037 36.1377 123.888 35.9812 124.344 35.668C124.821 35.3548 125.06 34.9164 125.06 34.3528C125.06 33.81 124.645 33.3298 123.815 32.9123C122.986 32.4739 121.637 31.9728 119.771 31.4091C114.938 29.9478 112.521 26.9206 112.521 22.3277C112.521 20.4488 113.06 18.8413 114.139 17.5052C115.218 16.1482 116.597 15.167 118.277 14.5616C119.957 13.9561 121.834 13.6534 123.909 13.6534C127.456 13.6534 130.069 14.311 131.749 15.6263C132.122 15.9812 132.309 16.1586 132.309 16.1586L130.94 20.6367C129.571 19.2797 127.684 18.6012 125.278 18.6012C123.307 18.6012 122.322 19.1858 122.322 20.3549C122.322 20.6889 122.394 20.9707 122.54 21.2004C122.685 21.4092 122.923 21.597 123.255 21.7641C123.608 21.9102 123.95 22.0355 124.282 22.1398C124.614 22.2233 125.081 22.3486 125.682 22.5156C126.284 22.6618 126.802 22.7975 127.238 22.9227C129.665 23.7369 131.428 24.8851 132.527 26.3674C133.626 27.8496 134.176 29.6972 134.176 31.9102C134.176 38.3402 130.162 41.5553 122.135 41.5553Z" fill="#0167FF"/>
<path d="M115.871 50.2922H114.556C114.478 49.9114 114.342 49.5769 114.147 49.2887C113.957 49.0004 113.723 48.7585 113.447 48.5627C113.175 48.3635 112.873 48.214 112.541 48.1144C112.208 48.0147 111.862 47.9649 111.501 47.9649C110.843 47.9649 110.248 48.1322 109.714 48.4667C109.183 48.8012 108.761 49.294 108.446 49.9452C108.135 50.5964 107.98 51.3953 107.98 52.3419C107.98 53.2885 108.135 54.0874 108.446 54.7386C108.761 55.3898 109.183 55.8827 109.714 56.2172C110.248 56.5517 110.843 56.7189 111.501 56.7189C111.862 56.7189 112.208 56.6691 112.541 56.5695C112.873 56.4698 113.175 56.3221 113.447 56.1264C113.723 55.9271 113.957 55.6834 114.147 55.3951C114.342 55.1033 114.478 54.7688 114.556 54.3916H115.871C115.772 54.9503 115.592 55.4503 115.33 55.8916C115.068 56.3328 114.743 56.7082 114.354 57.0178C113.965 57.3239 113.529 57.557 113.044 57.7171C112.563 57.8772 112.049 57.9573 111.501 57.9573C110.575 57.9573 109.751 57.7295 109.03 57.2741C108.308 56.8186 107.741 56.1709 107.327 55.3311C106.914 54.4913 106.707 53.4949 106.707 52.3419C106.707 51.1889 106.914 50.1926 107.327 49.3527C107.741 48.5129 108.308 47.8653 109.03 47.4098C109.751 46.9543 110.575 46.7265 111.501 46.7265C112.049 46.7265 112.563 46.8066 113.044 46.9667C113.529 47.1269 113.965 47.3617 114.354 47.6713C114.743 47.9774 115.068 48.351 115.33 48.7923C115.592 49.23 115.772 49.7299 115.871 50.2922Z" fill="black"/>
<path d="M120.224 58C119.708 58 119.239 57.9021 118.818 57.7064C118.398 57.5071 118.064 57.2207 117.816 56.847C117.569 56.4698 117.445 56.0143 117.445 55.4805C117.445 55.0108 117.537 54.6301 117.721 54.3383C117.904 54.0429 118.15 53.8116 118.458 53.6443C118.765 53.4771 119.105 53.3525 119.476 53.2707C119.851 53.1853 120.227 53.1177 120.606 53.0679C121.101 53.0038 121.502 52.9558 121.809 52.9237C122.121 52.8881 122.347 52.8294 122.488 52.7476C122.633 52.6657 122.706 52.5234 122.706 52.3206V52.2779C122.706 51.7512 122.563 51.342 122.276 51.0502C121.993 50.7584 121.564 50.6125 120.987 50.6125C120.39 50.6125 119.921 50.7441 119.582 51.0075C119.243 51.2708 119.004 51.5519 118.866 51.8508L117.678 51.4238C117.89 50.9256 118.173 50.5377 118.527 50.2602C118.884 49.979 119.273 49.7833 119.693 49.673C120.118 49.5591 120.535 49.5022 120.945 49.5022C121.207 49.5022 121.507 49.5342 121.847 49.5983C122.19 49.6588 122.52 49.7851 122.838 49.9773C123.16 50.1694 123.427 50.4594 123.639 50.8473C123.851 51.2352 123.957 51.7548 123.957 52.406V57.8078H122.706V56.6976H122.642C122.557 56.8755 122.416 57.0659 122.218 57.2687C122.02 57.4716 121.756 57.6441 121.428 57.7865C121.099 57.9288 120.698 58 120.224 58ZM120.415 56.8684C120.91 56.8684 121.327 56.7705 121.666 56.5748C122.009 56.3791 122.267 56.1264 122.441 55.8168C122.617 55.5072 122.706 55.1816 122.706 54.84V53.687C122.653 53.7511 122.536 53.8098 122.356 53.8632C122.179 53.913 121.974 53.9575 121.741 53.9966C121.511 54.0322 121.286 54.0642 121.067 54.0927C120.851 54.1176 120.676 54.139 120.542 54.1568C120.217 54.1995 119.913 54.2689 119.63 54.3649C119.35 54.4575 119.124 54.598 118.951 54.7866C118.781 54.9717 118.696 55.2243 118.696 55.5446C118.696 55.9823 118.857 56.3132 119.179 56.5374C119.504 56.7581 119.916 56.8684 120.415 56.8684Z" fill="black"/>
<path d="M126.242 57.8078V49.609H127.451V50.8473H127.536C127.684 50.4417 127.953 50.1125 128.342 49.8598C128.731 49.6072 129.169 49.4808 129.657 49.4808C129.749 49.4808 129.864 49.4826 130.002 49.4862C130.14 49.4897 130.244 49.4951 130.315 49.5022V50.7833C130.272 50.7726 130.175 50.7566 130.023 50.7352C129.875 50.7103 129.717 50.6979 129.551 50.6979C129.155 50.6979 128.802 50.7815 128.49 50.9487C128.183 51.1124 127.939 51.3402 127.759 51.632C127.582 51.9202 127.493 52.2494 127.493 52.6195V57.8078H126.242Z" fill="black"/>
<path d="M135.852 49.609V50.6765H131.63V49.609H135.852ZM132.86 47.6446H134.112V55.4592C134.112 55.8151 134.163 56.0819 134.266 56.2599C134.372 56.4342 134.506 56.5517 134.669 56.6122C134.835 56.6691 135.01 56.6976 135.194 56.6976C135.332 56.6976 135.445 56.6905 135.533 56.6762C135.622 56.6584 135.692 56.6442 135.745 56.6335L136 57.7651C135.915 57.7972 135.797 57.8292 135.645 57.8612C135.493 57.8968 135.3 57.9146 135.067 57.9146C134.713 57.9146 134.367 57.8381 134.027 57.6851C133.691 57.5321 133.412 57.299 133.189 56.9858C132.97 56.6727 132.86 56.2777 132.86 55.8008V47.6446Z" fill="black"/>
</g>
</svg>
