<svg width="74" height="32" viewBox="0 0 74 32" fill="none" xmlns="http://www.w3.org/2000/svg">
<path d="M4.21689 22.0001V6.8834H0.316895V2.46673H13.7502V6.8834H9.85023V22.0001H4.21689Z" fill="#43B190"/>
<path d="M15.4116 22.0001V11.2167L14.4116 10.6001V8.81673L17.9949 7.8334H20.7782V22.0001H15.4116ZM17.8282 6.30007L15.0949 3.55007V2.96673L17.8282 0.233398H18.4616L21.3116 2.96673V3.55007L18.4616 6.30007H17.8282Z" fill="#43B190"/>
<path d="M28.4609 22.0001H23.0776V11.2167L22.0776 10.6001V8.81673L25.6609 7.8334H28.4942V9.9834C28.5498 9.90562 28.6276 9.80562 28.7276 9.6834C28.8387 9.55007 29.0387 9.34451 29.3276 9.06673C29.6165 8.78895 29.9109 8.54451 30.2109 8.3334C30.522 8.12229 30.8942 7.9334 31.3276 7.76673C31.772 7.58895 32.2109 7.50007 32.6442 7.50007C33.7553 7.50007 34.6053 7.71118 35.1942 8.1334C35.7831 8.55562 36.1998 9.24451 36.4442 10.2001C36.822 9.54451 37.3998 8.9334 38.1776 8.36673C38.9665 7.78895 39.8331 7.50007 40.7776 7.50007C41.822 7.50007 42.6331 7.6834 43.2109 8.05007C43.7998 8.40562 44.2276 9.01673 44.4942 9.8834C44.7609 10.7501 44.8942 11.9723 44.8942 13.5501V22.0001H39.4776V13.0667C39.4776 12.5778 39.3609 12.1945 39.1276 11.9167C38.8942 11.639 38.5387 11.5001 38.0609 11.5001C37.7387 11.5001 37.2998 11.7667 36.7442 12.3001C36.7776 12.8334 36.7942 13.4112 36.7942 14.0334V22.0001H31.2942V13.0667C31.3276 12.0223 30.8831 11.5001 29.9609 11.5001C29.8942 11.5001 29.8276 11.5056 29.7609 11.5167C29.7053 11.5278 29.6498 11.539 29.5942 11.5501C29.5498 11.5612 29.4942 11.5834 29.4276 11.6167C29.372 11.639 29.322 11.6612 29.2776 11.6834C29.2331 11.6945 29.1831 11.7223 29.1276 11.7667C29.072 11.8001 29.0276 11.8278 28.9942 11.8501C28.9609 11.8723 28.9109 11.9112 28.8442 11.9667C28.7887 12.0112 28.7442 12.0445 28.7109 12.0667C28.6887 12.089 28.6442 12.1278 28.5776 12.1834C28.522 12.2278 28.4831 12.2612 28.4609 12.2834V22.0001Z" fill="#43B190"/>
<path d="M54.4867 13.3834C54.4867 11.9723 54.4145 10.9723 54.27 10.3834C54.1256 9.79451 53.8589 9.50007 53.47 9.50007C53.1367 9.50007 52.8645 9.56118 52.6534 9.6834C52.4422 9.79451 52.2867 9.97784 52.1867 10.2334C52.0867 10.4778 52.02 10.7334 51.9867 11.0001C51.9645 11.2556 51.9534 11.5834 51.9534 11.9834V13.3834H54.4867ZM53.1534 22.3501C51.9089 22.3501 50.8256 22.1612 49.9034 21.7834C48.9922 21.4056 48.27 20.8778 47.7367 20.2001C47.2145 19.5223 46.8311 18.7612 46.5867 17.9167C46.3422 17.0612 46.22 16.1112 46.22 15.0667C46.22 12.5778 46.8534 10.6945 48.12 9.41673C49.3867 8.13895 51.1589 7.50007 53.4367 7.50007C55.6256 7.50007 57.1922 8.01673 58.1367 9.05007C59.0811 10.0723 59.5534 11.7223 59.5534 14.0001V15.8501H51.9367V16.1667C51.9367 16.8223 52.0034 17.3612 52.1367 17.7834C52.2811 18.2056 52.4867 18.5167 52.7534 18.7167C53.02 18.9167 53.2922 19.0501 53.57 19.1167C53.8478 19.1834 54.1867 19.2167 54.5867 19.2167C54.9756 19.2167 55.3922 19.1667 55.8367 19.0667C56.2922 18.9667 56.7478 18.8112 57.2034 18.6001C57.67 18.389 58.0589 18.139 58.37 17.8501L59.3534 19.5334C58.9422 20.2001 58.3367 20.7612 57.5367 21.2167C56.7478 21.6612 55.9867 21.9612 55.2534 22.1167C54.52 22.2723 53.82 22.3501 53.1534 22.3501Z" fill="#43B190"/>
<path d="M65.7422 22.3501C64.6977 22.3501 63.6422 22.1778 62.5755 21.8334C61.5088 21.4778 60.8255 21.1334 60.5255 20.8001L60.9588 18.1167C61.3366 18.4834 61.9644 18.8001 62.8422 19.0667C63.731 19.3334 64.6366 19.4667 65.5588 19.4667C66.2255 19.4667 66.681 19.3834 66.9255 19.2167C67.181 19.0501 67.3088 18.8167 67.3088 18.5167C67.3088 18.2278 67.0866 17.9723 66.6422 17.7501C66.1977 17.5167 65.4755 17.2501 64.4755 16.9501C61.8866 16.1723 60.5922 14.5612 60.5922 12.1167C60.5922 11.1167 60.881 10.2612 61.4588 9.55007C62.0366 8.82784 62.7755 8.30562 63.6755 7.9834C64.5755 7.66118 65.581 7.50007 66.6922 7.50007C68.5922 7.50007 69.9922 7.85007 70.8922 8.55007C71.0922 8.73896 71.1922 8.8334 71.1922 8.8334L70.4588 11.2167C69.7255 10.4945 68.7144 10.1334 67.4255 10.1334C66.3699 10.1334 65.8422 10.4445 65.8422 11.0667C65.8422 11.2445 65.881 11.3945 65.9588 11.5167C66.0366 11.6278 66.1644 11.7278 66.3422 11.8167C66.531 11.8945 66.7144 11.9612 66.8922 12.0167C67.0699 12.0612 67.3199 12.1278 67.6422 12.2167C67.9644 12.2945 68.2422 12.3667 68.4755 12.4334C69.7755 12.8667 70.7199 13.4778 71.3088 14.2667C71.8977 15.0556 72.1922 16.039 72.1922 17.2167C72.1922 20.639 70.0422 22.3501 65.7422 22.3501Z" fill="#43B190"/>
<path d="M62.3866 27.0001H61.682C61.6404 26.7974 61.5675 26.6194 61.4633 26.466C61.361 26.3126 61.236 26.1838 61.0883 26.0796C60.9425 25.9736 60.7805 25.894 60.6025 25.841C60.4245 25.7879 60.2389 25.7614 60.0457 25.7614C59.6934 25.7614 59.3743 25.8504 59.0883 26.0285C58.8042 26.2065 58.5779 26.4688 58.4093 26.8154C58.2427 27.162 58.1593 27.5872 58.1593 28.091C58.1593 28.5948 58.2427 29.02 58.4093 29.3665C58.5779 29.7131 58.8042 29.9754 59.0883 30.1535C59.3743 30.3315 59.6934 30.4205 60.0457 30.4205C60.2389 30.4205 60.4245 30.394 60.6025 30.341C60.7805 30.2879 60.9425 30.2093 61.0883 30.1052C61.236 29.9991 61.361 29.8694 61.4633 29.716C61.5675 29.5607 61.6404 29.3826 61.682 29.1819H62.3866C62.3336 29.4792 62.237 29.7453 62.0968 29.9802C61.9567 30.215 61.7824 30.4148 61.5741 30.5796C61.3658 30.7425 61.1319 30.8665 60.8724 30.9518C60.6148 31.037 60.3392 31.0796 60.0457 31.0796C59.5495 31.0796 59.1082 30.9584 58.7218 30.716C58.3355 30.4736 58.0315 30.1289 57.8099 29.6819C57.5883 29.2349 57.4775 28.7046 57.4775 28.091C57.4775 27.4773 57.5883 26.947 57.8099 26.5001C58.0315 26.0531 58.3355 25.7084 58.7218 25.466C59.1082 25.2236 59.5495 25.1023 60.0457 25.1023C60.3392 25.1023 60.6148 25.145 60.8724 25.2302C61.1319 25.3154 61.3658 25.4404 61.5741 25.6052C61.7824 25.7681 61.9567 25.9669 62.0968 26.2018C62.237 26.4347 62.3336 26.7008 62.3866 27.0001Z" fill="black"/>
<path d="M64.7183 31.1023C64.4418 31.1023 64.1908 31.0503 63.9654 30.9461C63.74 30.84 63.5611 30.6876 63.4285 30.4887C63.2959 30.2879 63.2296 30.0455 63.2296 29.7614C63.2296 29.5114 63.2789 29.3088 63.3774 29.1535C63.4758 28.9963 63.6075 28.8732 63.7722 28.7842C63.937 28.6951 64.1188 28.6289 64.3177 28.5853C64.5185 28.5398 64.7202 28.5039 64.9228 28.4773C65.188 28.4432 65.4029 28.4177 65.5677 28.4006C65.7344 28.3817 65.8556 28.3504 65.9313 28.3069C66.009 28.2633 66.0478 28.1876 66.0478 28.0796V28.0569C66.0478 27.7766 65.9711 27.5588 65.8177 27.4035C65.6662 27.2482 65.4361 27.1705 65.1274 27.1705C64.8073 27.1705 64.5563 27.2406 64.3745 27.3807C64.1927 27.5209 64.0649 27.6705 63.991 27.8296L63.3546 27.6023C63.4683 27.3372 63.6198 27.1307 63.8092 26.983C64.0005 26.8334 64.2088 26.7292 64.4342 26.6705C64.6614 26.6099 64.8849 26.5796 65.1046 26.5796C65.2448 26.5796 65.4058 26.5967 65.5876 26.6307C65.7713 26.6629 65.9484 26.7302 66.1188 26.8325C66.2912 26.9347 66.4342 27.0891 66.5478 27.2955C66.6614 27.502 66.7183 27.7785 66.7183 28.1251V31.0001H66.0478V30.4092H66.0137C65.9683 30.5039 65.8925 30.6052 65.7865 30.7131C65.6804 30.8211 65.5393 30.9129 65.3632 30.9887C65.187 31.0645 64.9721 31.1023 64.7183 31.1023ZM64.8205 30.5001C65.0857 30.5001 65.3092 30.448 65.491 30.3438C65.6747 30.2396 65.813 30.1052 65.9058 29.9404C66.0005 29.7756 66.0478 29.6023 66.0478 29.4205V28.8069C66.0194 28.841 65.9569 28.8722 65.8603 28.9006C65.7656 28.9271 65.6558 28.9508 65.5308 28.9717C65.4077 28.9906 65.2874 29.0076 65.17 29.0228C65.0544 29.0361 64.9607 29.0474 64.8887 29.0569C64.7145 29.0796 64.5516 29.1165 64.4001 29.1677C64.2505 29.2169 64.1293 29.2917 64.0364 29.3921C63.9455 29.4906 63.9001 29.6251 63.9001 29.7955C63.9001 30.0285 63.9863 30.2046 64.1586 30.3239C64.3328 30.4414 64.5535 30.5001 64.8205 30.5001Z" fill="black"/>
<path d="M67.942 31.0001V26.6364H68.5897V27.2955H68.6352C68.7147 27.0796 68.8587 26.9044 69.067 26.77C69.2753 26.6355 69.5102 26.5682 69.7715 26.5682C69.8208 26.5682 69.8823 26.5692 69.9562 26.5711C70.0301 26.573 70.0859 26.5758 70.1238 26.5796V27.2614C70.1011 27.2557 70.049 27.2472 69.9676 27.2359C69.888 27.2226 69.8037 27.216 69.7147 27.216C69.5026 27.216 69.3132 27.2605 69.1465 27.3495C68.9818 27.4366 68.8511 27.5578 68.7545 27.7131C68.6598 27.8665 68.6124 28.0417 68.6124 28.2387V31.0001H67.942Z" fill="black"/>
<path d="M73.0897 26.6364V27.2046H70.8284V26.6364H73.0897ZM71.4874 25.591H72.1579V29.7501C72.1579 29.9395 72.1854 30.0815 72.2403 30.1762C72.2971 30.269 72.3691 30.3315 72.4562 30.3637C72.5452 30.394 72.639 30.4092 72.7374 30.4092C72.8113 30.4092 72.8719 30.4054 72.9193 30.3978C72.9666 30.3883 73.0045 30.3807 73.0329 30.3751L73.1693 30.9773C73.1238 30.9944 73.0604 31.0114 72.9789 31.0285C72.8975 31.0474 72.7943 31.0569 72.6693 31.0569C72.4799 31.0569 72.2943 31.0162 72.1124 30.9347C71.9325 30.8533 71.7829 30.7292 71.6636 30.5626C71.5462 30.3959 71.4874 30.1857 71.4874 29.9319V25.591Z" fill="black"/>
</svg>
